<svg width="25" height="26" viewBox="0 0 25 26" fill="none" xmlns="http://www.w3.org/2000/svg">
<path fill-rule="evenodd" clip-rule="evenodd" d="M12.273 8.53918C12.5792 8.23527 13.0739 8.23719 13.3778 8.54348L17.2538 12.4497C17.556 12.7543 17.556 13.2457 17.2538 13.5503L13.3778 17.4565C13.0739 17.7628 12.5792 17.7647 12.273 17.4608C11.9667 17.1569 11.9648 16.6623 12.2687 16.356L14.8234 13.7812H8.30078C7.86931 13.7812 7.51953 13.4315 7.51953 13C7.51953 12.5685 7.86931 12.2188 8.30078 12.2188H14.8234L12.2687 9.64402C11.9648 9.33774 11.9667 8.84309 12.273 8.53918Z" fill="#A08A61"/>
<path fill-rule="evenodd" clip-rule="evenodd" d="M2.34375 13C2.34375 7.39275 6.89275 2.84375 12.5 2.84375C18.1073 2.84375 22.6562 7.39275 22.6562 13C22.6562 18.6073 18.1073 23.1562 12.5 23.1562C6.89275 23.1562 2.34375 18.6073 2.34375 13ZM12.5 4.40625C7.75569 4.40625 3.90625 8.25569 3.90625 13C3.90625 17.7443 7.75569 21.5938 12.5 21.5938C17.2443 21.5938 21.0938 17.7443 21.0938 13C21.0938 8.25569 17.2443 4.40625 12.5 4.40625Z" fill="#A08A61"/>
</svg>
