<svg width="20" height="20" viewBox="0 0 20 20" fill="none" xmlns="http://www.w3.org/2000/svg">
<path fill-rule="evenodd" clip-rule="evenodd" d="M0 10C0 4.47901 4.47901 0 10 0C15.521 0 20 4.47901 20 10C20 15.521 15.521 20 10 20C4.47901 20 0 15.521 0 10ZM10 1.53846C5.32868 1.53846 1.53846 5.32868 1.53846 10C1.53846 14.6713 5.32868 18.4615 10 18.4615C14.6713 18.4615 18.4615 14.6713 18.4615 10C18.4615 5.32868 14.6713 1.53846 10 1.53846Z" fill="#1BBE66"/>
<path fill-rule="evenodd" clip-rule="evenodd" d="M15.1101 5.56489C15.4354 5.83814 15.4776 6.32336 15.2044 6.64866L8.74283 14.341C8.59962 14.5114 8.38958 14.6115 8.16696 14.6153C7.94435 14.6191 7.731 14.5263 7.58206 14.3608L4.81283 11.2839C4.52863 10.9681 4.55423 10.4817 4.87001 10.1975C5.18578 9.91331 5.67216 9.93891 5.95636 10.2547L8.13381 12.6741L14.0264 5.65913C14.2996 5.33383 14.7848 5.29164 15.1101 5.56489Z" fill="#1BBE66"/>
</svg>
